<svg height="1024" node-id="1" sillyvg="true" template-height="1024" template-width="1024" version="1.1" viewBox="0 0 1024 1024" width="1024" xmlns="http://www.w3.org/2000/svg" xmlns:xlink="http://www.w3.org/1999/xlink"><defs node-id="16"></defs><path d="M 0.00 0.00 L 1024.00 0.00 L 1024.00 1024.00 L 0.00 1024.00 Z" fill="transparent" fill-rule="nonzero" node-id="18" stroke="none" target-height="1024" target-width="1024" target-x="0" target-y="0"/><path d="M 616.20 95.30 L 625.00 88.10 L 640.90 72.00 L 641.00 77.90 L 640.10 95.50 L 640.20 101.40 L 640.80 107.30 L 642.70 115.90 L 646.60 128.60 L 647.60 132.90 L 648.20 137.30 L 648.20 144.40 L 649.10 149.40 L 654.90 163.60 L 657.00 169.90 L 658.40 176.20 L 659.40 182.70 L 659.80 195.70 L 659.50 202.30 L 658.50 212.10 L 656.90 221.80 L 648.20 267.00 L 645.90 282.10 L 658.30 276.00 L 670.90 270.30 L 683.70 264.90 L 696.60 259.90 L 713.90 253.80 L 731.50 248.20 L 749.30 243.30 L 767.20 238.80 L 785.20 234.80 L 813.40 229.30 L 854.10 222.50 L 864.20 220.40 L 874.10 217.80 L 884.00 214.60 L 872.80 234.70 L 870.30 239.80 L 868.20 245.20 L 866.60 250.30 L 865.50 255.40 L 862.90 271.00 L 861.70 276.20 L 860.70 278.80 L 855.00 288.90 L 853.90 291.50 L 853.20 294.20 L 853.10 303.50 L 852.60 309.90 L 851.60 316.10 L 850.10 322.40 L 848.10 328.40 L 845.70 334.30 L 842.90 340.00 L 839.60 345.50 L 832.30 356.30 L 808.90 387.60 L 799.00 401.90 L 790.80 415.10 L 786.80 420.60 L 782.40 425.70 L 777.50 430.50 L 772.30 434.90 L 766.90 439.00 L 761.10 442.60 L 755.10 445.80 L 748.90 448.60 L 742.50 450.90 L 736.00 452.70 L 729.20 454.10 L 718.20 455.50 L 707.20 456.30 L 696.20 456.80 L 662.90 457.50 L 689.70 464.40 L 698.60 467.00 L 710.10 471.30 L 715.60 474.00 L 723.30 478.00 L 730.60 482.50 L 751.80 497.30 L 763.30 504.90 L 767.30 508.10 L 771.10 511.70 L 774.50 515.60 L 777.40 519.80 L 779.80 524.20 L 782.40 531.40 L 783.20 535.20 L 783.90 542.30 L 783.80 545.40 L 783.40 548.50 L 780.40 562.40 L 779.90 567.10 L 780.00 570.10 L 780.50 573.20 L 784.00 582.10 L 786.80 587.60 L 790.00 592.90 L 797.20 602.90 L 801.20 607.70 L 807.60 614.50 L 833.00 639.60 L 838.30 645.50 L 844.60 653.80 L 847.30 658.30 L 849.50 662.90 L 851.20 667.80 L 852.30 672.90 L 852.40 675.00 L 852.00 676.90 L 851.10 678.50 L 849.90 679.90 L 846.60 681.80 L 842.70 682.50 L 836.80 681.80 L 833.00 680.90 L 829.50 679.50 L 826.10 677.60 L 823.00 675.40 L 817.30 670.10 L 809.40 659.50 L 805.90 655.40 L 801.90 651.50 L 797.60 648.00 L 793.00 644.80 L 788.20 642.10 L 783.10 639.90 L 778.00 638.20 L 772.60 637.10 L 764.50 636.60 L 760.30 636.80 L 753.50 638.30 L 748.90 640.70 L 745.80 643.10 L 735.00 654.90 L 729.90 659.10 L 725.10 661.40 L 719.10 663.10 L 713.10 664.30 L 706.90 665.00 L 694.50 665.00 L 688.30 664.60 L 669.80 662.00 L 649.60 657.40 L 639.70 654.50 L 629.90 651.20 L 617.00 646.30 L 604.40 640.80 L 591.90 634.80 L 579.80 628.20 L 567.90 621.30 L 556.20 613.90 L 546.60 607.30 L 537.30 600.30 L 528.10 593.00 L 519.30 585.30 L 510.80 577.30 L 502.60 569.00 L 494.90 560.30 L 487.50 551.30 L 480.50 541.90 L 481.30 556.90 L 482.30 565.20 L 483.20 568.30 L 484.60 571.40 L 495.50 594.70 L 500.50 606.50 L 505.10 618.40 L 509.20 630.60 L 512.80 642.90 L 515.60 654.40 L 517.70 666.00 L 519.30 677.70 L 520.50 689.40 L 521.20 701.20 L 521.60 713.00 L 521.50 730.70 L 520.70 748.40 L 519.50 766.10 L 517.30 790.10 L 516.20 796.40 L 514.70 802.50 L 510.60 814.50 L 504.10 829.00 L 487.00 863.10 L 477.70 879.50 L 447.40 927.40 L 440.10 939.60 L 433.30 952.00 L 439.50 904.80 L 441.30 889.00 L 442.80 867.90 L 443.10 857.30 L 443.00 846.80 L 442.40 836.20 L 439.90 815.40 L 438.00 805.20 L 434.40 791.80 L 429.50 778.90 L 426.50 772.70 L 423.00 766.60 L 419.20 761.10 L 415.10 756.00 L 410.50 751.10 L 400.70 742.20 L 395.40 738.10 L 387.10 732.40 L 378.60 727.10 L 371.80 733.60 L 364.50 739.60 L 356.90 745.10 L 344.80 752.50 L 332.00 758.30 L 325.30 760.70 L 318.50 762.60 L 311.60 764.00 L 304.50 765.00 L 295.70 765.80 L 286.90 766.00 L 278.20 765.60 L 260.80 763.70 L 252.10 762.10 L 239.20 759.20 L 226.40 755.90 L 195.00 747.10 L 176.60 742.60 L 168.70 739.70 L 163.20 736.80 L 160.70 734.00 L 157.70 729.10 L 163.20 732.00 L 168.80 734.30 L 172.70 735.30 L 176.70 735.90 L 190.90 736.30 L 200.90 736.90 L 220.80 739.30 L 230.70 741.10 L 240.40 743.30 L 250.10 745.90 L 268.00 751.70 L 276.60 754.00 L 288.30 756.40 L 300.00 757.50 L 305.90 757.40 L 311.80 757.00 L 317.50 756.10 L 323.30 754.70 L 328.90 752.80 L 322.00 754.00 L 315.00 754.50 L 308.00 754.50 L 294.10 753.00 L 279.90 749.90 L 272.80 747.70 L 251.80 740.30 L 237.60 736.10 L 221.60 733.20 L 195.20 730.50 L 186.40 729.40 L 177.70 727.90 L 199.00 722.20 L 209.80 719.90 L 220.60 718.10 L 227.90 717.30 L 235.30 717.00 L 242.60 717.00 L 270.00 718.70 L 251.60 713.80 L 233.40 708.20 L 224.50 704.90 L 215.90 700.90 L 210.40 697.90 L 205.00 694.50 L 194.80 686.70 L 190.10 682.30 L 186.00 677.50 L 182.20 672.30 L 179.00 666.80 L 176.20 661.10 L 173.90 655.10 L 172.20 648.90 L 171.00 642.60 L 174.50 648.70 L 178.50 654.40 L 182.90 659.60 L 187.80 664.50 L 193.00 669.00 L 198.50 673.20 L 210.20 680.60 L 216.40 683.90 L 225.80 688.40 L 235.40 692.20 L 214.10 679.30 L 207.20 674.70 L 198.60 667.80 L 190.10 658.90 L 185.90 653.50 L 183.40 649.70 L 179.50 641.60 L 178.10 637.30 L 177.20 632.90 L 176.90 628.40 L 177.10 625.90 L 177.80 623.60 L 178.90 621.60 L 180.40 619.70 L 184.10 616.70 L 188.40 614.80 L 195.10 613.30 L 204.50 612.50 L 209.10 612.80 L 212.20 613.40 L 217.80 615.40 L 220.30 617.00 L 222.60 618.90 L 226.10 623.40 L 227.90 627.60 L 228.50 630.90 L 228.60 648.20 L 230.00 654.90 L 231.80 661.50 L 234.00 667.80 L 236.70 674.10 L 239.80 680.20 L 243.30 686.00 L 247.10 691.60 L 251.20 697.00 L 255.70 702.20 L 260.50 707.00 L 265.60 711.50 L 270.90 715.80 L 276.50 719.60 L 282.40 723.10 L 288.40 726.30 L 294.60 729.00 L 301.50 731.60 L 308.50 733.70 L 315.70 735.30 L 323.00 736.40 L 330.30 737.00 L 337.60 736.90 L 343.10 736.50 L 348.50 735.60 L 353.80 734.40 L 359.10 732.70 L 363.60 730.90 L 367.80 728.80 L 371.80 726.20 L 375.50 723.20 L 378.90 719.90 L 382.00 716.30 L 384.80 712.50 L 387.30 708.40 L 389.40 704.10 L 391.00 699.60 L 392.30 695.10 L 393.10 690.30 L 393.80 683.30 L 394.00 676.10 L 393.90 668.80 L 393.20 661.60 L 392.10 654.50 L 390.50 647.40 L 387.10 637.20 L 382.40 627.70 L 379.50 623.20 L 376.30 618.90 L 372.70 614.90 L 368.60 611.10 L 365.30 608.70 L 361.80 606.70 L 358.10 605.10 L 350.30 603.00 L 346.30 602.40 L 340.10 602.10 L 334.10 602.40 L 322.80 603.70 L 311.60 605.60 L 289.30 610.60 L 264.90 616.80 L 262.70 617.00 L 260.50 616.70 L 257.20 615.70 L 254.10 614.10 L 251.10 612.20 L 248.50 610.20 L 245.70 607.10 L 243.60 603.80 L 242.00 600.20 L 240.90 596.40 L 240.30 592.40 L 240.20 588.40 L 241.10 580.40 L 242.10 576.60 L 244.70 569.50 L 247.80 562.60 L 251.30 555.90 L 256.30 547.90 L 259.10 545.60 L 261.60 544.40 L 264.20 543.70 L 269.80 543.30 L 276.40 544.00 L 282.90 545.40 L 289.30 547.30 L 295.40 549.80 L 301.30 552.90 L 306.80 556.50 L 326.80 572.00 L 366.00 603.80 L 360.30 597.20 L 354.20 591.20 L 347.70 585.40 L 327.50 568.90 L 314.70 557.30 L 307.00 548.70 L 303.50 544.10 L 311.40 546.80 L 319.20 549.90 L 326.90 553.40 L 334.30 557.30 L 341.50 561.60 L 348.40 566.30 L 353.30 570.20 L 362.40 578.80 L 372.30 590.00 L 389.90 608.90 L 399.40 603.00 L 405.00 598.20 L 407.50 595.40 L 408.00 575.60 L 408.40 570.60 L 409.30 565.70 L 413.30 587.90 L 426.00 573.10 L 429.30 569.60 L 443.70 556.70 L 448.70 551.60 L 453.40 546.20 L 451.40 545.60 L 447.40 545.30 L 435.20 546.80 L 417.80 543.00 L 414.90 545.40 L 412.50 548.10 L 410.40 551.10 L 402.00 565.20 L 398.90 569.60 L 390.20 579.90 L 384.60 585.70 L 391.90 600.40 L 388.50 604.50 L 382.70 596.60 L 376.40 589.00 L 357.00 566.50 L 351.20 558.60 L 347.70 553.10 L 344.60 547.30 L 342.00 541.20 L 340.30 536.50 L 338.10 526.50 L 337.50 521.40 L 337.40 516.30 L 337.70 511.10 L 338.50 506.10 L 339.80 501.20 L 341.60 496.60 L 343.40 493.30 L 345.50 490.20 L 347.90 487.20 L 350.70 484.50 L 349.80 499.30 L 349.90 509.20 L 350.40 514.10 L 353.20 514.80 L 358.10 511.00 L 362.50 506.70 L 378.60 487.70 L 382.80 483.20 L 387.40 479.10 L 389.00 478.30 L 391.70 478.20 L 393.60 478.90 L 395.40 480.20 L 403.50 489.30 L 405.80 491.30 L 408.30 492.90 L 412.40 494.80 L 416.80 496.20 L 425.90 497.70 L 425.60 486.90 L 422.40 486.70 L 419.50 486.10 L 416.80 485.10 L 411.90 482.00 L 408.00 477.60 L 405.30 472.40 L 404.10 466.80 L 404.10 463.80 L 404.40 460.90 L 405.30 458.10 L 406.60 455.20 L 395.90 443.20 L 384.90 431.60 L 373.60 420.30 L 350.00 398.60 L 319.50 372.60 L 295.00 352.50 L 288.70 348.00 L 282.10 343.80 L 276.90 341.00 L 266.30 336.30 L 260.80 334.60 L 255.30 333.20 L 249.60 332.30 L 243.80 331.90 L 229.00 331.80 L 227.40 331.50 L 226.10 330.70 L 225.00 329.40 L 228.90 325.70 L 231.30 324.30 L 235.10 322.70 L 239.10 321.50 L 243.30 320.90 L 247.30 320.80 L 252.10 321.70 L 256.80 323.00 L 261.30 324.90 L 269.80 329.60 L 285.80 341.00 L 304.00 355.60 L 339.70 385.50 L 357.20 400.90 L 374.20 416.70 L 394.20 436.40 L 403.80 446.90 L 410.80 453.20 L 412.20 450.30 L 409.80 446.30 L 393.90 424.90 L 386.80 414.50 L 373.50 392.90 L 365.20 378.20 L 357.40 363.30 L 343.50 334.10 L 340.50 327.00 L 337.90 319.80 L 335.30 309.90 L 334.60 304.80 L 334.60 297.60 L 335.00 294.00 L 335.80 290.50 L 337.10 287.10 L 338.90 284.00 L 341.20 287.00 L 342.40 291.30 L 344.00 307.80 L 345.10 315.80 L 346.70 323.70 L 348.70 331.60 L 351.00 339.40 L 356.90 354.50 L 366.10 373.30 L 372.20 384.50 L 385.40 406.50 L 392.50 417.20 L 407.60 437.90 L 415.60 447.90 L 419.50 447.30 L 423.60 447.00 L 426.30 447.20 L 431.40 448.40 L 433.70 449.50 L 435.90 451.00 L 439.90 455.40 L 441.40 458.10 L 442.30 460.90 L 442.80 463.80 L 442.80 466.80 L 441.70 472.90 L 439.20 478.50 L 450.60 488.80 L 455.70 487.10 L 455.30 494.40 L 456.70 493.40 L 458.60 490.90 L 464.20 473.50 L 467.50 465.60 L 471.30 458.00 L 475.70 450.60 L 480.50 443.50 L 500.70 418.90 L 516.00 401.40 L 526.40 390.00 L 551.00 364.50 L 553.90 361.20 L 560.10 352.10 L 570.60 335.20 L 574.40 329.80 L 578.70 324.80 L 570.20 330.90 L 562.00 337.40 L 554.20 344.40 L 531.70 366.30 L 523.40 375.00 L 515.50 384.10 L 508.00 393.50 L 500.80 403.10 L 487.40 423.00 L 491.80 413.20 L 498.70 401.60 L 512.80 381.90 L 525.40 366.60 L 542.50 348.80 L 563.90 328.10 L 581.30 310.60 L 594.30 295.60 L 603.60 283.40 L 612.50 271.00 L 621.10 258.30 L 629.20 245.30 L 637.00 232.10 L 643.20 220.70 L 648.80 208.90 L 651.00 202.90 L 652.70 196.70 L 653.70 188.20 L 653.70 183.80 L 652.30 173.30 L 650.30 167.90 L 647.40 164.30 L 644.10 164.30 L 640.90 164.80 L 628.50 168.90 L 631.60 166.30 L 634.50 163.40 L 637.10 160.10 L 639.30 156.60 L 641.10 153.00 L 642.50 149.20 L 643.40 145.30 L 643.70 141.30 L 643.50 137.40 L 643.00 134.50 L 640.70 128.80 L 638.90 126.00 L 634.90 106.70 L 633.20 93.80 L 633.00 87.20 L 618.80 98.20 L 605.00 109.70 L 591.40 121.50 L 578.20 133.60 L 565.30 146.20 L 552.80 159.10 L 540.80 172.40 L 529.10 186.10 L 521.60 195.30 L 507.50 214.50 L 500.90 224.40 L 494.70 234.50 L 488.80 244.80 L 483.30 255.30 L 478.20 266.10 L 467.70 290.80 L 462.90 303.30 L 455.90 324.50 L 451.50 341.80 L 449.10 354.80 L 447.20 367.90 L 445.80 381.10 L 444.90 394.30 L 444.60 407.50 L 444.90 420.70 L 449.00 460.00 L 450.80 473.10 L 452.20 471.80 L 453.10 470.20 L 453.60 468.50 L 453.90 465.70 L 453.10 454.40 L 453.90 451.00 L 454.80 449.60 L 456.20 448.40 L 458.20 447.40 L 458.80 450.70 L 459.00 453.80 L 458.70 456.90 L 457.60 461.50 L 452.20 474.90 L 452.70 481.00 L 452.40 483.00 L 451.70 484.80 L 450.50 486.60 L 442.80 445.30 L 439.80 424.60 L 438.90 414.20 L 438.60 403.70 L 438.80 390.70 L 439.50 377.80 L 440.50 364.90 L 442.10 352.00 L 444.10 339.10 L 446.70 326.40 L 449.80 313.90 L 453.40 301.40 L 456.70 291.60 L 460.40 281.90 L 464.50 272.40 L 468.90 263.10 L 473.80 253.90 L 481.00 241.40 L 488.60 229.30 L 496.50 217.40 L 504.90 205.90 L 513.60 194.50 L 525.00 180.70 L 536.80 167.30 L 549.10 154.30 L 561.80 141.70 L 574.90 129.50 L 588.40 117.70 L 602.10 106.30 L 616.20 95.30 Z M 764.50 245.90 L 747.60 250.40 L 730.70 255.50 L 714.00 260.90 L 697.50 266.80 L 681.10 273.30 L 665.00 280.30 L 653.10 285.90 L 641.30 291.90 L 629.80 298.20 L 618.40 304.90 L 605.20 313.60 L 598.80 318.20 L 592.60 323.10 L 585.00 330.30 L 581.60 334.30 L 591.70 327.00 L 612.40 313.00 L 623.10 306.50 L 634.00 300.40 L 645.20 294.70 L 657.40 289.00 L 669.80 283.70 L 682.30 278.70 L 701.30 271.80 L 720.50 265.40 L 759.30 253.80 L 775.10 249.50 L 791.00 245.70 L 854.90 231.70 L 854.60 234.00 L 849.40 237.10 L 838.50 242.10 L 830.00 245.00 L 821.30 247.50 L 794.90 253.60 L 775.90 258.70 L 765.80 261.80 L 745.70 268.90 L 726.10 277.40 L 716.70 282.20 L 707.40 287.40 L 698.40 293.10 L 689.30 299.50 L 671.60 312.90 L 663.10 320.00 L 646.80 335.00 L 657.90 329.40 L 690.10 310.60 L 701.00 304.90 L 712.00 299.70 L 723.30 294.80 L 734.70 290.30 L 749.20 285.20 L 763.80 280.70 L 778.60 276.70 L 793.60 273.30 L 783.70 274.60 L 764.30 278.30 L 754.70 280.70 L 742.10 284.40 L 729.60 288.70 L 717.30 293.50 L 705.20 298.80 L 693.30 304.50 L 681.70 310.60 L 685.30 306.70 L 689.40 303.40 L 693.70 300.30 L 707.10 291.80 L 716.60 286.30 L 726.20 281.30 L 736.10 276.60 L 746.10 272.30 L 756.30 268.50 L 766.70 265.00 L 777.10 262.00 L 787.70 259.40 L 798.40 257.10 L 809.10 255.40 L 819.90 254.00 L 830.80 253.10 L 841.00 252.90 L 847.70 253.50 L 850.70 254.60 L 852.60 255.60 L 854.20 257.10 L 855.80 259.00 L 855.30 261.40 L 854.40 271.50 L 853.80 273.90 L 852.90 276.20 L 851.30 278.30 L 848.70 281.20 L 845.70 283.70 L 839.20 287.70 L 832.00 290.80 L 826.40 292.50 L 809.40 296.00 L 798.00 297.80 L 763.60 302.00 L 740.70 305.90 L 729.20 308.30 L 706.40 314.10 L 695.20 317.60 L 684.10 321.50 L 673.20 325.90 L 662.60 330.80 L 639.30 342.90 L 631.00 347.80 L 577.30 391.80 L 522.60 434.90 L 513.50 442.70 L 490.60 463.50 L 486.80 466.30 L 482.70 468.60 L 487.60 461.90 L 492.70 455.60 L 498.30 449.50 L 507.00 441.00 L 544.30 408.50 L 553.10 400.00 L 560.60 392.10 L 581.80 367.20 L 592.90 355.20 L 598.90 349.60 L 608.10 341.60 L 617.80 333.90 L 637.70 319.60 L 628.50 324.30 L 619.50 329.60 L 602.30 341.10 L 585.80 353.60 L 574.70 362.60 L 564.00 371.90 L 553.70 381.70 L 533.90 402.20 L 510.50 429.00 L 496.90 445.50 L 483.30 463.40 L 478.00 468.70 L 475.00 471.00 L 478.60 463.60 L 486.80 449.60 L 493.80 439.40 L 501.10 429.60 L 520.80 405.10 L 539.60 384.90 L 544.10 379.70 L 548.20 374.20 L 551.90 368.40 L 548.80 370.80 L 546.00 373.50 L 531.50 390.80 L 516.90 406.00 L 507.60 416.50 L 492.80 434.90 L 485.70 444.50 L 479.10 454.40 L 475.00 461.10 L 467.70 475.10 L 464.60 482.30 L 461.90 489.70 L 459.70 497.40 L 463.20 502.20 L 467.00 506.90 L 476.90 500.60 L 486.90 494.70 L 497.30 489.20 L 507.80 484.10 L 518.50 479.40 L 539.60 470.90 L 569.80 457.10 L 579.90 452.60 L 590.20 448.50 L 577.60 448.60 L 582.80 446.40 L 588.30 444.60 L 619.50 436.90 L 637.60 433.30 L 651.30 431.40 L 665.00 429.90 L 692.60 428.30 L 719.80 425.90 L 728.80 424.50 L 734.70 423.10 L 740.50 421.40 L 746.10 419.30 L 732.10 421.10 L 714.50 421.70 L 672.20 420.10 L 661.60 420.00 L 651.00 420.40 L 640.50 421.30 L 626.90 423.40 L 613.50 425.90 L 600.10 428.90 L 586.90 432.50 L 573.90 436.60 L 561.10 441.40 L 551.60 445.30 L 542.40 449.70 L 533.30 454.50 L 524.40 459.70 L 531.70 454.30 L 539.20 449.40 L 546.80 444.90 L 554.70 440.90 L 565.50 436.00 L 576.50 431.60 L 587.80 427.80 L 610.80 421.40 L 622.50 418.80 L 670.40 409.50 L 696.10 403.80 L 708.80 400.50 L 721.30 396.70 L 733.80 392.60 L 746.10 388.00 L 758.20 383.00 L 770.10 377.40 L 800.80 361.70 L 817.20 351.80 L 829.40 342.60 L 832.80 339.60 L 835.80 336.30 L 838.60 332.70 L 840.90 328.80 L 842.90 324.80 L 844.40 320.50 L 845.50 316.10 L 846.10 311.70 L 846.30 307.20 L 845.20 305.30 L 844.00 303.90 L 842.50 302.80 L 839.90 301.60 L 837.00 300.80 L 825.00 299.20 L 836.30 295.70 L 843.50 292.30 L 846.70 290.20 L 849.60 287.70 L 852.20 284.80 L 855.70 279.40 L 857.10 275.40 L 857.50 272.10 L 857.50 268.80 L 856.90 262.30 L 864.20 237.20 L 866.30 231.10 L 868.90 225.10 L 851.30 227.50 L 833.80 230.40 L 816.40 233.80 L 799.00 237.50 L 764.50 245.90 Z M 734.10 445.30 L 725.50 446.20 L 716.80 446.80 L 708.20 446.90 L 695.30 446.50 L 643.40 442.30 L 630.50 441.70 L 613.40 442.30 L 607.80 443.30 L 604.20 444.30 L 600.80 445.80 L 597.40 447.70 L 625.10 445.40 L 641.50 445.30 L 652.40 445.90 L 684.90 448.60 L 703.00 449.40 L 710.20 449.20 L 724.10 448.30 L 730.50 447.30 L 736.80 445.70 L 743.00 443.60 L 749.00 441.00 L 754.80 437.90 L 760.40 434.40 L 765.70 430.60 L 770.70 426.30 L 775.50 421.70 L 779.90 416.90 L 783.90 411.80 L 768.30 424.40 L 760.20 430.40 L 751.80 436.00 L 746.10 439.40 L 734.10 445.30 Z M 419.00 454.20 L 415.20 456.10 L 413.70 457.50 L 411.40 461.00 L 410.20 465.00 L 410.10 467.00 L 411.00 471.10 L 412.00 473.00 L 413.40 474.70 L 415.20 476.70 L 417.30 478.00 L 419.70 478.90 L 422.20 479.20 L 424.70 479.10 L 427.20 478.60 L 429.60 477.60 L 431.80 476.30 L 433.70 474.60 L 435.20 472.60 L 436.20 470.30 L 436.90 465.20 L 436.70 463.00 L 436.00 460.90 L 433.50 457.30 L 431.80 455.90 L 427.90 453.80 L 423.50 453.20 L 421.30 453.50 L 419.00 454.20 Z M 469.60 510.60 L 474.60 521.50 L 478.20 526.30 L 480.60 528.00 L 483.30 529.20 L 486.00 530.00 L 494.70 531.70 L 497.50 532.60 L 522.80 547.20 L 550.30 564.90 L 599.00 598.10 L 639.70 625.10 L 653.50 633.50 L 662.90 638.90 L 682.30 648.50 L 695.20 653.50 L 701.80 655.50 L 708.50 656.90 L 713.00 657.40 L 717.50 657.40 L 722.20 657.00 L 706.80 652.50 L 692.00 646.60 L 682.40 642.10 L 672.90 637.10 L 663.70 631.80 L 636.70 614.60 L 575.80 571.70 L 560.30 561.40 L 544.50 551.60 L 556.40 557.50 L 593.80 578.90 L 608.30 586.50 L 623.00 593.70 L 638.00 600.40 L 653.10 606.60 L 668.40 612.50 L 683.90 617.90 L 699.50 622.90 L 682.70 614.60 L 666.20 605.80 L 600.60 569.50 L 567.30 552.90 L 555.90 547.70 L 532.90 538.30 L 521.20 534.30 L 509.30 530.90 L 497.10 528.00 L 505.70 528.90 L 514.20 530.30 L 522.50 532.30 L 534.90 535.90 L 547.10 540.20 L 641.30 576.00 L 688.50 592.60 L 733.60 607.70 L 754.70 615.80 L 761.50 618.90 L 774.70 625.90 L 781.00 629.80 L 787.10 634.20 L 798.40 643.50 L 818.90 662.60 L 827.20 668.90 L 832.60 671.70 L 837.10 672.70 L 839.40 672.60 L 841.60 672.00 L 843.80 670.80 L 844.60 669.30 L 845.30 666.20 L 845.00 663.80 L 844.30 661.30 L 842.30 656.80 L 838.40 650.60 L 834.10 644.80 L 829.30 639.30 L 824.20 634.20 L 818.70 629.30 L 813.00 624.80 L 804.00 618.50 L 794.70 612.70 L 786.80 608.40 L 778.70 604.50 L 770.50 601.10 L 757.80 596.60 L 744.90 592.60 L 705.80 582.10 L 679.80 574.20 L 653.70 565.30 L 595.60 543.70 L 576.10 536.90 L 563.00 532.60 L 549.80 528.80 L 536.40 525.30 L 547.10 525.70 L 568.50 528.80 L 598.80 534.00 L 689.80 550.90 L 709.00 554.20 L 718.80 555.40 L 728.50 556.20 L 735.10 556.40 L 748.00 555.90 L 754.50 555.20 L 760.80 553.90 L 767.20 552.20 L 771.50 550.30 L 773.30 548.80 L 776.00 545.30 L 777.60 541.00 L 778.00 536.40 L 777.10 531.90 L 776.10 529.80 L 773.80 525.70 L 768.40 518.20 L 763.60 513.00 L 758.50 508.20 L 747.40 499.70 L 757.70 511.70 L 764.10 520.10 L 768.20 527.70 L 770.20 534.50 L 770.20 536.70 L 769.10 540.30 L 767.50 542.70 L 765.30 544.70 L 762.80 546.30 L 760.00 547.60 L 754.30 549.30 L 747.40 550.20 L 740.50 550.80 L 733.60 550.80 L 723.20 550.30 L 712.80 549.20 L 692.20 546.20 L 671.00 542.10 L 607.30 528.90 L 578.90 523.80 L 564.60 521.70 L 550.30 520.00 L 536.00 518.80 L 521.50 518.10 L 533.10 515.80 L 544.90 513.90 L 556.60 512.50 L 568.50 511.50 L 584.40 510.70 L 600.20 510.50 L 616.00 510.90 L 625.40 511.40 L 644.10 513.60 L 699.80 523.60 L 690.20 520.30 L 680.50 517.40 L 670.70 514.90 L 655.90 511.70 L 625.80 506.80 L 610.80 504.70 L 601.00 503.70 L 591.20 503.20 L 571.70 503.50 L 552.20 505.10 L 537.70 506.90 L 494.20 514.10 L 509.20 509.80 L 524.40 505.90 L 539.70 502.50 L 555.10 499.50 L 570.50 497.10 L 586.10 495.10 L 597.20 494.20 L 608.30 493.90 L 619.50 494.00 L 630.60 494.60 L 652.90 496.70 L 662.00 498.00 L 680.00 501.90 L 715.80 511.20 L 724.80 513.10 L 732.50 513.70 L 735.10 513.60 L 737.70 513.20 L 739.90 512.30 L 742.40 510.30 L 743.30 508.70 L 743.50 506.20 L 743.20 503.80 L 741.50 499.70 L 738.60 495.90 L 733.00 491.10 L 727.20 487.10 L 733.40 495.20 L 734.70 497.40 L 735.60 499.60 L 735.80 502.90 L 735.50 504.70 L 733.50 506.30 L 731.40 507.30 L 729.10 508.00 L 725.50 508.30 L 714.50 507.30 L 703.10 504.90 L 669.10 496.40 L 657.70 493.70 L 646.30 491.40 L 630.90 489.40 L 623.10 489.00 L 607.20 489.00 L 591.40 489.60 L 575.60 490.90 L 559.90 492.80 L 544.20 495.10 L 528.60 498.00 L 513.10 501.40 L 497.70 505.10 L 482.40 509.20 L 488.90 506.40 L 495.20 503.20 L 519.70 489.10 L 526.00 485.90 L 540.70 479.60 L 549.00 476.40 L 557.40 473.70 L 570.20 470.10 L 609.10 461.00 L 599.70 461.50 L 590.40 462.40 L 581.20 463.80 L 572.10 465.70 L 560.10 468.90 L 548.20 472.60 L 536.50 477.00 L 525.00 481.80 L 513.60 487.00 L 502.40 492.60 L 485.80 501.50 L 469.60 510.60 Z M 431.20 482.40 L 431.50 488.30 L 432.20 494.10 L 433.30 499.80 L 434.90 505.40 L 437.50 512.80 L 440.70 519.80 L 444.60 526.70 L 448.90 533.30 L 453.60 539.50 L 458.80 545.50 L 464.30 551.20 L 470.10 556.40 L 476.00 561.30 L 475.90 554.40 L 475.30 547.50 L 474.10 540.70 L 472.50 534.00 L 470.30 527.50 L 467.70 521.10 L 464.60 515.00 L 461.00 509.10 L 456.90 503.50 L 449.60 494.90 L 445.60 490.90 L 441.20 487.30 L 438.10 485.30 L 434.80 483.70 L 431.20 482.40 Z M 352.10 521.70 L 358.40 536.30 L 363.40 545.70 L 366.30 550.10 L 370.40 548.00 L 374.10 545.60 L 377.60 542.90 L 382.40 538.20 L 386.70 533.10 L 402.30 511.20 L 404.00 509.30 L 405.70 507.90 L 407.60 506.90 L 410.70 505.90 L 414.10 505.60 L 417.50 505.70 L 427.70 506.90 L 427.60 505.40 L 422.70 505.00 L 412.90 503.10 L 408.10 501.50 L 403.70 499.50 L 399.40 497.00 L 396.50 494.80 L 391.30 489.60 L 389.00 486.40 L 377.80 499.30 L 371.90 505.60 L 365.80 511.50 L 356.90 518.50 L 352.10 521.70 Z M 411.30 515.60 L 408.50 517.20 L 406.10 519.30 L 394.00 534.50 L 389.60 539.30 L 384.90 543.70 L 379.80 547.70 L 374.50 551.40 L 368.90 554.70 L 382.30 580.80 L 385.40 577.80 L 390.80 571.30 L 394.30 565.90 L 397.40 560.40 L 406.30 543.30 L 409.50 537.90 L 411.40 536.20 L 413.40 534.90 L 415.40 534.10 L 418.60 533.60 L 422.00 533.60 L 436.30 536.40 L 439.80 536.80 L 443.10 536.70 L 432.10 515.20 L 416.40 515.10 L 411.30 515.60 Z M 487.50 531.60 L 512.40 554.70 L 525.10 565.90 L 538.20 576.80 L 551.60 587.30 L 565.30 597.30 L 575.10 602.70 L 585.10 607.60 L 625.80 625.90 L 579.70 589.50 L 564.10 577.70 L 548.20 566.30 L 532.00 555.30 L 521.00 548.40 L 509.80 541.80 L 495.70 534.30 L 487.50 531.60 Z M 490.10 544.20 L 498.60 554.00 L 507.50 563.60 L 520.10 575.70 L 526.80 581.30 L 533.70 586.50 L 540.90 591.40 L 548.40 595.90 L 528.60 579.10 L 490.10 544.20 Z M 437.50 573.50 L 429.70 580.40 L 416.00 596.10 L 418.50 602.60 L 421.40 608.80 L 424.70 614.80 L 430.20 623.50 L 436.20 631.90 L 442.60 640.00 L 462.30 664.20 L 468.50 672.50 L 474.30 681.00 L 478.00 687.10 L 484.50 699.50 L 487.30 706.00 L 490.40 714.80 L 493.00 723.80 L 495.10 732.90 L 496.80 742.20 L 497.90 751.50 L 498.60 760.90 L 498.90 770.40 L 498.50 789.10 L 497.60 798.60 L 495.50 814.60 L 492.50 827.10 L 490.50 833.20 L 487.90 839.00 L 484.80 844.70 L 484.20 829.90 L 482.90 815.20 L 481.10 800.50 L 478.60 785.90 L 476.10 774.30 L 473.30 762.80 L 470.00 751.50 L 466.40 740.30 L 462.30 729.10 L 457.80 718.40 L 447.60 697.70 L 431.40 666.90 L 426.50 656.60 L 422.00 646.00 L 418.00 635.20 L 414.60 624.30 L 411.70 613.20 L 409.40 601.90 L 399.40 608.80 L 394.80 612.70 L 396.30 619.30 L 398.30 632.60 L 398.90 646.10 L 398.30 657.50 L 398.50 662.20 L 400.00 676.20 L 400.40 685.50 L 399.50 695.30 L 398.50 700.20 L 397.00 705.00 L 394.30 712.10 L 391.10 719.00 L 397.20 722.70 L 403.00 726.90 L 408.50 731.40 L 413.70 736.40 L 418.50 741.70 L 423.00 747.30 L 427.10 753.20 L 430.70 759.30 L 434.00 765.70 L 437.90 774.30 L 441.40 782.90 L 444.40 791.70 L 447.10 800.70 L 449.40 809.70 L 451.70 821.20 L 453.50 832.70 L 454.70 844.30 L 455.30 856.00 L 455.50 867.70 L 455.10 879.40 L 454.30 891.00 L 453.00 902.60 L 462.00 890.10 L 470.70 877.20 L 481.40 859.40 L 486.30 850.30 L 490.90 841.00 L 494.90 831.50 L 498.50 821.90 L 500.90 814.50 L 504.50 799.40 L 508.30 775.60 L 510.50 759.30 L 512.20 742.90 L 513.30 726.60 L 513.70 715.60 L 513.50 704.70 L 513.00 693.80 L 512.00 683.00 L 510.40 672.20 L 508.20 661.40 L 506.30 653.90 L 501.50 639.20 L 497.40 628.40 L 484.10 596.10 L 480.10 585.20 L 476.10 571.80 L 475.30 569.80 L 472.00 565.50 L 469.50 563.20 L 461.40 557.00 L 459.00 554.80 L 452.20 561.30 L 445.00 567.60 L 437.50 573.50 Z M 300.00 559.20 L 303.80 563.70 L 318.40 582.50 L 325.40 589.40 L 331.80 594.00 L 334.80 594.90 L 336.00 594.70 L 338.00 593.50 L 338.80 592.40 L 339.50 590.70 L 339.60 588.70 L 338.60 586.30 L 333.80 581.60 L 325.80 575.40 L 300.00 559.20 Z M 277.40 578.80 L 283.50 588.40 L 286.80 593.00 L 290.60 597.30 L 292.10 598.60 L 293.80 599.30 L 295.70 599.50 L 297.50 599.20 L 299.10 598.40 L 300.20 597.20 L 300.90 595.00 L 300.70 593.40 L 299.40 591.40 L 296.20 588.20 L 293.40 586.20 L 290.30 584.50 L 277.40 578.80 Z M 265.00 582.20 L 274.50 598.10 L 277.20 601.80 L 280.40 605.20 L 281.70 605.90 L 284.20 606.20 L 286.00 605.70 L 287.50 604.60 L 288.60 603.10 L 289.20 601.50 L 288.70 599.20 L 287.80 598.00 L 284.30 594.90 L 280.60 592.20 L 268.70 584.90 L 265.00 582.20 Z M 216.20 628.10 L 216.90 633.40 L 217.50 635.90 L 218.60 638.20 L 219.60 639.50 L 221.00 640.50 L 222.70 641.40 L 223.40 639.40 L 223.50 637.60 L 223.20 636.00 L 222.10 633.70 L 220.30 631.70 L 216.20 628.10 Z M 430.50 635.50 L 441.80 657.80 L 465.80 701.60 L 470.40 711.10 L 474.60 720.80 L 478.40 730.60 L 481.90 740.50 L 486.00 754.00 L 489.70 767.50 L 492.90 781.20 L 492.70 770.70 L 492.10 760.20 L 491.20 749.70 L 489.70 739.30 L 487.50 729.00 L 484.80 718.90 L 482.40 711.50 L 479.40 704.20 L 476.10 697.10 L 472.20 690.10 L 466.00 680.50 L 459.40 671.10 L 445.30 653.10 L 430.50 635.50 Z M 212.90 639.70 L 214.60 651.70 L 215.30 654.80 L 216.40 657.60 L 218.40 660.70 L 221.20 662.70 L 223.10 663.10 L 225.40 663.10 L 225.70 660.60 L 225.10 656.30 L 223.80 653.20 L 221.90 650.30 L 212.90 639.70 Z M 254.90 727.60 L 260.40 731.90 L 266.20 735.90 L 282.90 746.50 L 288.20 748.60 L 292.00 749.00 L 294.00 748.70 L 294.10 746.80 L 293.90 745.30 L 293.10 744.10 L 291.50 742.50 L 289.40 741.20 L 284.90 739.40 L 269.70 734.10 L 262.20 731.00 L 254.90 727.60 Z" fill="#fbfdfe" fill-rule="nonzero" node-id="20" stroke="none" target-height="880" target-width="726.3" target-x="157.7" target-y="72"/><path d="M 533.20 190.20 L 552.20 168.70 L 562.10 158.30 L 577.30 143.10 L 592.90 128.20 L 625.00 99.60 L 620.30 108.70 L 613.00 119.10 L 602.80 130.60 L 580.90 152.60 L 572.90 161.20 L 565.20 170.00 L 557.90 179.10 L 545.90 196.40 L 541.20 204.50 L 536.90 212.80 L 529.50 229.90 L 526.30 238.70 L 521.90 252.00 L 517.90 265.50 L 510.30 292.50 L 488.50 358.30 L 480.90 380.20 L 470.20 409.00 L 464.40 423.30 L 463.10 425.60 L 462.50 426.00 L 461.90 425.80 L 461.60 424.70 L 461.70 421.40 L 466.20 405.00 L 472.30 378.00 L 476.10 357.60 L 480.70 329.70 L 482.30 322.40 L 487.50 304.40 L 491.20 293.70 L 499.10 272.70 L 491.20 287.50 L 482.90 306.80 L 478.50 318.60 L 470.30 342.50 L 467.20 352.40 L 464.80 362.50 L 462.80 372.70 L 461.40 383.00 L 460.30 393.30 L 459.20 410.00 L 458.40 416.30 L 453.40 441.40 L 452.00 440.00 L 450.50 436.80 L 450.10 434.10 L 449.70 425.80 L 449.60 409.50 L 450.10 393.20 L 451.20 376.90 L 452.50 364.70 L 454.20 352.60 L 456.40 340.60 L 459.00 328.60 L 462.10 316.80 L 465.80 305.20 L 470.00 293.70 L 480.40 269.80 L 486.50 257.60 L 493.10 245.60 L 500.20 233.90 L 507.80 222.40 L 515.80 211.30 L 524.30 200.60 L 533.20 190.20 Z" fill="#fbfdfe" fill-rule="nonzero" node-id="22" stroke="none" target-height="341.8" target-width="175.4" target-x="449.6" target-y="99.6"/><path d="M 624.00 122.20 L 626.00 121.20 L 628.20 120.70 L 630.40 120.70 L 637.30 121.40 L 637.10 127.60 L 638.60 130.30 L 639.60 133.00 L 640.10 135.70 L 639.80 141.20 L 639.10 144.00 L 637.50 148.00 L 633.10 155.60 L 630.60 159.00 L 619.10 171.50 L 603.30 185.90 L 583.90 202.50 L 574.40 211.10 L 565.60 219.70 L 557.10 228.50 L 549.00 237.60 L 541.10 247.10 L 533.70 256.80 L 526.80 266.90 L 519.80 278.20 L 517.70 280.70 L 515.30 283.00 L 521.30 269.50 L 527.70 256.20 L 534.60 243.10 L 541.90 230.20 L 549.60 217.70 L 557.90 205.50 L 564.50 196.60 L 571.30 187.90 L 578.50 179.50 L 586.10 171.30 L 575.60 180.40 L 570.70 185.30 L 563.80 193.10 L 557.30 201.20 L 545.20 218.20 L 542.50 222.50 L 534.90 235.90 L 532.20 240.20 L 529.10 244.30 L 531.70 235.30 L 534.80 226.50 L 538.50 217.90 L 542.60 209.50 L 547.10 201.40 L 552.00 193.40 L 557.30 185.70 L 563.00 178.20 L 571.00 168.60 L 579.40 159.50 L 588.30 150.80 L 605.30 135.40 L 611.30 130.60 L 617.40 126.20 L 624.00 122.20 Z" fill="#fbfdfe" fill-rule="nonzero" node-id="24" stroke="none" target-height="162.3" target-width="124.79999" target-x="515.3" target-y="120.7"/><path d="M 633.20 174.00 L 641.00 171.50 L 643.70 171.20 L 645.40 171.40 L 648.70 173.00 L 650.30 176.60 L 650.60 181.40 L 648.90 190.10 L 646.90 195.50 L 644.40 200.70 L 641.60 205.60 L 636.80 212.70 L 631.40 219.40 L 619.90 232.30 L 609.40 243.00 L 598.50 253.40 L 564.50 283.20 L 546.10 300.20 L 532.20 314.70 L 524.90 323.20 L 518.00 332.00 L 511.70 341.20 L 505.80 350.60 L 500.30 360.30 L 495.20 370.20 L 488.00 385.40 L 481.30 400.80 L 468.10 433.70 L 466.20 439.90 L 464.60 442.00 L 463.30 442.70 L 464.10 435.80 L 466.80 427.60 L 482.20 390.30 L 492.20 367.60 L 499.20 352.70 L 506.70 338.00 L 514.60 323.50 L 520.80 312.90 L 527.50 302.50 L 534.50 292.40 L 541.90 282.40 L 549.40 273.10 L 557.10 264.10 L 580.90 237.50 L 588.60 228.40 L 562.80 252.90 L 554.50 261.30 L 538.60 278.90 L 531.20 288.10 L 524.10 297.60 L 517.40 307.40 L 508.20 322.20 L 504.90 327.00 L 508.20 318.60 L 515.80 302.30 L 520.10 294.40 L 526.30 284.10 L 532.90 274.10 L 539.80 264.30 L 550.70 249.90 L 562.00 235.90 L 577.70 218.10 L 585.90 209.50 L 600.30 195.90 L 612.70 186.10 L 619.20 181.70 L 626.10 177.60 L 633.20 174.00 Z" fill="#fbfdfe" fill-rule="nonzero" node-id="26" stroke="none" target-height="271.5" target-width="187.29999" target-x="463.3" target-y="171.2"/><path d="M 592.60 271.70 L 630.90 228.40 L 621.60 243.00 L 611.70 257.20 L 601.40 271.00 L 590.60 284.60 L 568.30 311.00 L 516.40 369.20 L 499.50 388.80 L 508.60 374.90 L 518.10 361.20 L 538.10 334.60 L 559.30 308.90 L 575.70 290.10 L 592.60 271.70 Z" fill="#fbfdfe" fill-rule="nonzero" node-id="28" stroke="none" target-height="160.4" target-width="131.40002" target-x="499.5" target-y="228.4"/><path d="M 729.80 318.40 L 755.20 312.10 L 768.10 309.30 L 781.00 307.00 L 789.70 305.90 L 807.10 304.70 L 815.80 304.80 L 824.50 305.40 L 833.30 306.60 L 837.20 307.70 L 840.80 309.60 L 842.20 311.00 L 843.00 312.70 L 843.10 315.20 L 840.80 320.80 L 838.50 324.50 L 835.70 327.80 L 829.10 333.50 L 825.30 336.00 L 819.50 339.20 L 813.60 342.00 L 803.60 345.80 L 793.40 349.20 L 772.90 354.50 L 752.00 358.70 L 736.20 361.20 L 688.60 367.80 L 672.80 370.40 L 657.10 373.40 L 636.40 378.60 L 616.10 385.30 L 606.30 389.30 L 596.70 393.80 L 578.10 404.10 L 555.80 418.50 L 516.60 446.00 L 519.70 442.30 L 526.90 436.00 L 550.80 418.30 L 563.40 409.50 L 589.10 392.80 L 602.30 385.00 L 615.70 377.60 L 629.30 370.50 L 643.10 363.90 L 655.00 358.90 L 667.10 354.30 L 679.30 350.20 L 697.90 344.60 L 716.70 339.50 L 754.30 330.30 L 746.20 331.00 L 738.10 332.20 L 722.10 335.40 L 695.60 341.20 L 682.40 344.50 L 669.40 348.10 L 652.30 353.90 L 633.60 361.40 L 623.60 366.20 L 603.80 376.20 L 613.30 369.50 L 623.00 363.10 L 632.90 357.10 L 643.10 351.50 L 664.00 341.40 L 685.50 332.50 L 700.10 327.30 L 714.90 322.60 L 729.80 318.40 Z" fill="#fbfdfe" fill-rule="nonzero" node-id="30" stroke="none" target-height="141.29999" target-width="326.5" target-x="516.6" target-y="304.7"/><path d="M 675.40 387.50 L 738.60 370.90 L 759.60 365.00 L 780.40 358.80 L 801.10 352.00 L 787.00 359.00 L 772.70 365.40 L 758.10 371.40 L 728.50 382.10 L 713.40 386.90 L 690.70 393.60 L 653.90 403.50 L 611.60 414.10 L 597.60 418.00 L 574.60 425.50 L 556.70 432.80 L 569.10 426.00 L 581.80 419.70 L 594.70 414.10 L 607.90 408.90 L 634.70 399.60 L 675.40 387.50 Z" fill="#fbfdfe" fill-rule="nonzero" node-id="32" stroke="none" target-height="80.79999" target-width="244.39996" target-x="556.7" target-y="352"/><path d="M 457.80 436.80 L 459.10 437.50 L 460.00 438.80 L 460.50 440.40 L 460.70 442.20 L 460.10 445.30 L 458.10 444.50 L 457.50 443.60 L 456.90 441.90 L 456.80 440.00 L 457.10 438.10 L 457.80 436.80 Z" fill="#fbfdfe" fill-rule="nonzero" node-id="34" stroke="none" target-height="8.5" target-width="3.9000244" target-x="456.8" target-y="436.8"/><path d="M 460.00 445.30 L 463.30 447.10 L 462.30 449.20 L 459.90 449.10 L 458.70 446.70 L 460.00 445.30 Z" fill="#fbfdfe" fill-rule="nonzero" node-id="36" stroke="none" target-height="3.9000244" target-width="4.5999756" target-x="458.7" target-y="445.3"/><path d="M 223.10 548.10 L 235.70 543.50 L 240.10 542.30 L 244.50 541.60 L 249.00 541.20 L 249.10 545.10 L 248.70 548.70 L 248.00 552.30 L 246.20 557.50 L 243.90 562.60 L 236.60 577.70 L 234.80 582.90 L 234.00 586.50 L 233.70 590.10 L 234.00 597.30 L 234.50 600.50 L 236.60 606.50 L 239.80 612.10 L 242.80 615.90 L 246.20 619.50 L 242.60 619.30 L 235.80 618.00 L 230.80 616.40 L 211.30 608.60 L 206.40 607.30 L 199.50 606.40 L 191.40 607.00 L 187.00 608.10 L 182.80 609.70 L 178.70 611.70 L 171.20 616.80 L 162.60 598.80 L 157.70 590.10 L 152.40 581.70 L 148.50 576.30 L 140.00 566.00 L 147.30 566.80 L 154.40 567.00 L 161.50 566.60 L 168.60 565.60 L 175.60 564.30 L 182.50 562.60 L 192.90 559.50 L 203.10 555.90 L 223.10 548.10 Z M 211.20 566.70 L 218.80 577.10 L 220.90 579.50 L 223.40 581.50 L 226.20 581.70 L 228.10 580.50 L 229.00 578.30 L 229.00 577.10 L 228.10 574.60 L 225.60 572.70 L 222.90 571.10 L 211.20 566.70 Z M 196.60 569.00 L 206.00 584.00 L 209.40 588.80 L 214.50 594.70 L 217.50 597.30 L 218.70 598.10 L 221.40 598.80 L 222.90 598.80 L 225.40 597.70 L 227.10 595.60 L 227.50 594.10 L 225.60 591.30 L 221.10 586.50 L 217.30 583.30 L 200.60 572.00 L 196.60 569.00 Z M 174.00 582.00 L 181.10 594.80 L 184.00 598.80 L 185.10 600.10 L 186.50 601.00 L 189.60 601.70 L 191.20 601.50 L 192.90 600.80 L 193.00 598.10 L 192.50 595.90 L 191.60 594.00 L 188.60 590.70 L 186.70 589.20 L 174.00 582.00 Z M 170.90 598.10 L 172.30 603.60 L 174.30 608.90 L 177.70 606.90 L 180.80 604.50 L 170.90 598.10 Z" fill="#fbfdfe" fill-rule="nonzero" node-id="38" stroke="none" target-height="78.29999" target-width="109.100006" target-x="140" target-y="541.2"/><path d="M 260.00 626.90 L 272.10 625.00 L 284.10 622.50 L 320.10 614.50 L 332.20 612.40 L 337.70 611.70 L 343.30 611.60 L 350.60 612.40 L 354.20 613.30 L 357.60 614.60 L 360.90 616.30 L 364.00 618.50 L 367.60 621.70 L 370.90 625.20 L 373.70 628.90 L 376.30 632.90 L 378.50 637.20 L 381.80 646.10 L 383.00 650.80 L 384.00 657.20 L 384.50 663.50 L 384.30 669.90 L 377.50 658.00 L 374.90 654.30 L 369.10 647.30 L 365.80 644.20 L 362.20 641.50 L 354.60 637.00 L 350.70 635.40 L 346.60 634.20 L 342.40 633.50 L 338.30 633.20 L 334.00 633.40 L 329.90 634.10 L 325.90 635.30 L 322.10 637.10 L 326.10 636.00 L 330.20 635.50 L 334.20 635.50 L 342.10 636.70 L 345.90 637.90 L 353.40 641.20 L 362.00 646.80 L 366.70 650.60 L 369.90 653.80 L 372.70 657.30 L 375.30 661.20 L 377.30 665.30 L 378.90 669.50 L 379.90 674.00 L 380.20 677.30 L 380.10 680.70 L 379.70 684.10 L 378.80 687.40 L 377.40 683.30 L 375.70 679.50 L 373.60 675.80 L 371.20 672.40 L 368.40 669.20 L 362.00 663.70 L 348.40 655.50 L 338.20 650.00 L 327.70 644.90 L 316.90 640.40 L 309.60 637.80 L 294.80 633.60 L 316.30 643.60 L 326.80 649.00 L 347.30 660.80 L 357.30 667.20 L 362.20 670.90 L 366.60 675.10 L 368.60 678.50 L 369.20 680.50 L 369.10 682.10 L 368.60 683.40 L 367.80 684.40 L 366.00 685.50 L 363.70 686.10 L 359.40 686.10 L 354.70 685.20 L 345.60 682.40 L 339.00 679.70 L 290.00 657.00 L 274.90 650.90 L 311.10 673.00 L 347.60 694.60 L 355.80 700.00 L 358.10 702.20 L 359.40 703.90 L 361.00 707.90 L 359.90 710.10 L 358.60 711.80 L 357.00 713.00 L 355.10 714.00 L 350.70 715.00 L 347.10 715.10 L 336.90 714.10 L 330.00 712.30 L 323.10 710.10 L 316.20 707.50 L 309.40 704.40 L 303.00 700.90 L 296.80 696.90 L 292.40 693.60 L 288.30 690.10 L 280.90 682.20 L 277.60 677.90 L 274.80 673.30 L 272.30 668.40 L 270.30 663.20 L 271.50 668.40 L 273.30 673.40 L 275.50 678.20 L 278.10 682.70 L 281.10 687.10 L 288.20 695.00 L 292.10 698.60 L 300.70 705.00 L 305.20 707.70 L 315.00 712.80 L 325.70 716.80 L 336.80 719.60 L 342.40 720.50 L 351.00 721.40 L 359.60 721.80 L 350.50 724.80 L 341.00 726.30 L 334.70 726.60 L 328.30 726.30 L 321.80 725.60 L 309.20 723.00 L 303.10 721.30 L 297.10 719.00 L 285.60 713.50 L 274.70 706.50 L 269.60 702.60 L 264.80 698.30 L 260.30 693.80 L 256.10 688.90 L 252.20 683.80 L 248.70 678.40 L 245.60 672.80 L 243.30 667.80 L 241.50 662.60 L 240.10 657.40 L 238.50 649.40 L 235.30 625.10 L 241.40 626.30 L 247.60 627.20 L 255.80 627.40 L 260.00 626.90 Z" fill="#fbfdfe" fill-rule="nonzero" node-id="40" stroke="none" target-height="115" target-width="149.2" target-x="235.3" target-y="611.6"/><path d="M 673.10 734.50 L 696.60 735.30 L 708.50 735.20 L 720.30 734.70 L 732.00 733.60 L 743.60 731.80 L 752.20 730.10 L 760.70 727.90 L 769.20 725.20 L 777.50 722.00 L 773.60 730.00 L 769.30 737.90 L 764.60 745.40 L 759.50 752.70 L 754.00 759.80 L 748.20 766.60 L 742.10 773.20 L 735.80 779.50 L 726.90 787.40 L 717.60 794.90 L 708.00 801.80 L 698.50 807.90 L 688.80 813.50 L 678.90 818.70 L 658.50 827.90 L 648.10 831.90 L 632.20 837.50 L 616.20 842.50 L 583.80 851.40 L 490.90 874.50 L 512.80 832.30 L 520.50 818.40 L 531.60 800.50 L 537.50 791.80 L 543.80 783.40 L 550.60 775.40 L 557.80 767.60 L 563.70 762.40 L 569.90 757.70 L 576.30 753.60 L 583.00 750.00 L 589.90 746.80 L 597.00 744.00 L 604.30 741.60 L 611.80 739.60 L 621.90 737.60 L 632.10 736.00 L 642.40 735.00 L 652.80 734.50 L 673.10 734.50 Z M 682.70 741.40 L 670.10 741.00 L 649.10 741.30 L 632.30 742.70 L 624.00 743.90 L 615.70 745.60 L 607.60 747.60 L 599.60 750.20 L 591.80 753.20 L 584.10 756.80 L 578.10 760.20 L 572.50 764.00 L 567.20 768.20 L 562.10 772.70 L 552.80 782.60 L 546.40 790.60 L 540.50 799.00 L 534.90 807.60 L 523.40 826.60 L 517.50 837.20 L 515.00 842.70 L 512.80 848.30 L 518.60 840.80 L 524.70 833.60 L 531.20 826.70 L 537.90 820.20 L 545.00 813.90 L 552.40 808.00 L 560.10 802.40 L 567.90 797.30 L 576.00 792.50 L 584.40 788.00 L 592.90 784.00 L 601.60 780.40 L 610.50 777.20 L 619.50 774.50 L 628.70 772.20 L 598.00 785.90 L 588.40 790.70 L 579.00 795.90 L 569.90 801.60 L 561.00 807.70 L 552.50 814.20 L 544.30 821.10 L 536.40 828.40 L 529.00 836.10 L 522.00 844.30 L 531.80 838.60 L 551.90 828.40 L 562.20 823.70 L 572.70 819.50 L 583.40 815.80 L 594.20 812.60 L 605.20 809.90 L 642.20 801.90 L 654.30 798.60 L 662.30 796.00 L 670.10 792.90 L 677.70 789.30 L 688.10 783.50 L 700.10 774.80 L 724.20 753.90 L 744.90 738.00 L 738.10 739.60 L 731.20 740.70 L 724.30 741.40 L 714.00 741.90 L 682.70 741.40 Z M 681.10 794.80 L 667.50 801.00 L 660.50 803.50 L 649.90 806.80 L 639.10 809.50 L 606.30 816.70 L 595.50 819.40 L 584.80 822.40 L 574.20 826.10 L 558.70 832.30 L 540.00 841.50 L 529.10 847.50 L 507.70 860.50 L 517.50 857.30 L 536.80 850.00 L 600.70 831.40 L 632.40 821.30 L 648.00 815.60 L 663.40 809.30 L 672.30 805.30 L 681.00 800.80 L 689.50 796.00 L 697.80 790.90 L 713.70 779.70 L 728.90 767.30 L 738.40 758.40 L 747.60 749.20 L 756.40 739.50 L 750.90 742.60 L 740.50 749.50 L 733.10 755.20 L 704.60 779.50 L 697.10 785.10 L 686.60 791.80 L 681.10 794.80 Z" fill="#fbfdfe" fill-rule="nonzero" node-id="42" stroke="none" target-height="152.5" target-width="286.6" target-x="490.9" target-y="722"/></svg>